<svg id="svg" version="1.1" viewBox="0 0 300 80.1109350237718" width="300" height="80.1109350237718" xmlns="http://www.w3.org/2000/svg"><svg xmlns="http://www.w3.org/2000/svg"><defs><clipPath id="clip-1"><rect x="0" y="0" transform="scale(0.14648,0.14646)" width="2048" height="547" fill="none"/></clipPath></defs><g clip-path="url(#clip-1)" fill="none" fill-rule="nonzero" stroke="none" stroke-width="1" stroke-linecap="butt" stroke-linejoin="miter" stroke-miterlimit="10" stroke-dasharray="" stroke-dashoffset="0" font-family="none" font-weight="none" font-size="none" text-anchor="none" style="mix-blend-mode: normal"><path d="M151.48535,70.55137c1.13232,0.3616 8.625,-0.11614 9.60352,-0.63547l-0.19775,-0.4048c0.92871,-0.03764 2.25,0.75922 3.37939,0.68922c0.6167,0.19859 1.06055,-0.9215 1.37988,-0.82732c2.72168,0.80448 4.70215,-0.20518 7.31982,-0.79613c0.47607,-0.10735 1.57617,0.12566 2.38184,-0.03149c4.63184,-0.90407 10.58643,-1.48564 14.8623,-3.45268l0.00439,-0.46675c0.69434,-0.22891 1.95117,0.42311 2.6748,0.15641c1.11035,-0.40846 3.3457,-1.82703 4.40918,-2.07454c4.04297,-0.94156 8.01416,-2.04305 12.07031,-2.96645c1.22021,-0.27768 3.28418,-1.54452 4.61719,-1.89249c0.64746,-0.16901 1.90283,0.19991 2.49902,0.04291c0.85547,-0.22525 2.1665,-1.14982 2.97803,-1.37595c1.87939,-0.52358 3.84521,-0.98052 5.70264,-1.58948c2.08154,-0.68219 3.87744,-1.98901 5.81104,-2.96923c1.46191,-0.74092 3.17285,-1.08113 4.63477,-1.86159c0.97998,-0.52299 2.15186,-0.96865 3.09082,-1.55125c3.14795,-1.95415 5.86523,-4.46468 8.87256,-6.61084c3.44971,-2.55667 7.0957,-4.87988 10.51904,-7.4698c1.34766,-1.07425 2.55322,-2.34621 3.88037,-3.44111c3.9873,-3.28836 7.69189,-6.83872 11.79639,-9.97257c1.1499,-0.87741 2.92822,-3.73373 4.06201,-4.879c0.30762,-0.31107 0.68701,-1.56837 1.01953,-1.95113c0.46143,-0.32052 1.13379,-0.42217 1.4751,-1.09307c0.04395,-0.53453 0.09961,-0.35555 -0.16699,-0.75812c-1.54102,-0.82347 -6.60937,0.75944 -8.36426,1.30562c-4.46191,1.38936 -9.20654,1.63541 -13.56592,3.34776c-0.7002,0.27504 -1.53369,0.46661 -2.27051,0.62507c-0.74121,0.15964 -1.97754,-0.34124 -2.69531,-0.19435c-1.11035,0.22715 -2.21191,0.67062 -3.32812,0.89982c-3.03662,0.22159 -13.31982,2.98036 -15.5127,1.07557c-0.14209,-0.30887 -0.27979,-0.51992 -0.11719,-0.86994c0.97998,-2.11042 2.25439,-1.56824 3.59619,-2.2579c-0.27686,-0.21207 -0.29297,-0.34285 -0.39697,-0.68014l-0.57861,-0.28383c0.38818,-0.22466 0.90967,-0.0848 1.34766,0.01977c5.04785,1.20635 9.91113,-1.95286 14.91064,-2.39009c1.27441,-0.11141 2.83594,-1.0722 4.20264,-1.32964c1.55713,-0.29309 2.90918,-0.24818 4.46631,-0.41286c1.56152,-0.35707 3.22412,-0.93651 4.78418,-1.3759l11.75537,-3.37916c1.19824,-0.34459 2.68066,-0.35363 3.88916,-0.68646c0.70166,-0.19287 2.82129,-2.48159 3.40283,-2.65598c1.31836,-0.39626 3.06592,-0.2342 4.67578,-0.57457c1.77686,0.72009 2.16357,0.55606 3.3999,1.96452c0.04541,1.588 0.49951,3.69196 0.77344,5.30913c1.41504,1.42549 0.61963,1.25981 0.71777,2.99848l0.53027,10.61773c0.1084,1.84812 0.86279,3.39834 0.78955,5.33463c-0.02344,0.65304 -0.41162,3.36744 -0.33105,3.55285l0.45264,0.08817c-0.16113,0.51816 -0.44678,2.01171 -0.70752,2.27635c-1.19092,0.77826 -2.85059,-0.94215 -4.16602,0.24502l-0.56982,-0.10589l-0.22705,-0.45372c-0.23584,-0.0268 -0.90088,-0.02812 -1.00928,-0.12815c-0.6123,-0.56224 -0.64746,-1.18936 -0.24902,-1.87843c0.06006,-0.10281 -0.58154,-0.67091 -0.40576,-1.21631l0.76611,-0.31678l0.00439,-0.24956c-0.43945,-0.32088 -0.63867,-0.42384 -1.12354,-0.663c-0.11426,-0.81561 -0.62988,-4.83434 -0.8042,-5.39116l-0.46729,-0.27841c-0.03809,-0.30184 0.03516,-0.56561 0.17285,-0.83069c0.58594,-1.11672 -0.65625,-0.74765 0.02637,-2.23007c0.27832,0.0123 0.47314,0.03779 0.74854,0.07806c-0.14062,-0.87346 -1.11475,-0.76464 -1.43408,-1.53939c0.05713,-0.77343 0.44824,-1.24443 0.23145,-1.77709c-0.2168,-0.22217 -0.32227,-0.37522 -0.62988,-0.40524c-0.61377,0.23623 -5.44336,4.9455 -6.15674,5.82071c-1.81494,2.22817 -3.65332,4.28791 -5.71143,6.44036c-2.17236,2.27049 -4.06641,5.57686 -6.69287,7.43421c-2.37744,1.68687 -4.37549,3.13765 -7.16748,4.0404c-0.854,0.27607 -0.44531,1.10969 -2.40527,1.25907c-0.74414,0.05682 -4.32715,1.85251 -5.13574,2.25365l0.07764,0.39104c-1.27148,1.1526 -4.35498,3.0861 -5.92969,4.00071c-0.36182,-0.44771 -0.3501,-0.66066 -0.77197,-0.71807c-0.17871,0.66095 -0.11572,0.2582 0.06592,0.85061c-0.87305,0.26801 -2.45215,0.67179 -2.71582,1.70796c0.16113,0.13635 0.2168,0.20709 0.4292,0.21426c-2.66162,0.6302 -5.97363,2.59885 -8.58398,3.66123c-8.10352,3.3257 -16.10156,6.07305 -24.55518,8.38148c-4.38428,1.19756 -8.83887,2.59211 -13.29346,3.611c-1.59814,0.36541 -3.25488,1.21104 -4.83984,1.70796c-3.61816,1.13459 -7.31689,1.83362 -10.98926,2.75394c-1.52344,0.48198 -3.75439,0.36584 -5.21191,0.78222c-2.43604,0.69595 -4.54834,0.69742 -6.95508,1.0451c-6.70312,0.96807 -13.42676,1.44493 -20.18848,1.74457c-3.96284,0.1756 -7.94106,0.47071 -11.90815,0.56502c-3.6438,0.1302 -7.44155,-0.78778 -11.03994,-0.7954c-6.25078,-0.01318 -12.40635,-0.08143 -18.60762,-1.07161c-3.18472,-0.50835 -6.37588,-1.19141 -9.57407,-1.70283c-1.85479,-0.29672 -4.01191,-1.24868 -5.93042,-1.52841c-1.8375,-0.314 -3.75234,-0.86848 -5.61313,-1.14865c-2.13398,-0.68585 -2.27578,-1.69287 -4.87471,-1.60456c-0.81343,0.02768 -3.72451,-1.14528 -4.73848,-1.29276c-1.06348,-0.38078 -2.2355,-0.41974 -3.2978,-0.75981c-4.52168,-1.44771 -9.14487,-1.94214 -13.66714,-3.41592c-1.66831,-0.54364 -2.09707,-1.3862 -3.33984,-1.83684c-2.00493,-0.727 -4.4937,-1.05565 -6.48501,-1.98666c-2.48145,-0.88063 -4.00107,-1.96396 -6.26602,-2.92002l-6.90352,-2.86832c-1.58804,-0.64382 -3.50698,-1.22158 -4.96055,-2.11335c-6.17563,-3.78923 -12.68364,-6.91986 -18.78406,-10.79784c-1.74577,-1.10984 -3.24587,-2.86539 -4.86812,-3.92207c-3.14354,-2.04744 -6.18696,-2.92647 -8.49807,-6.11743c1.45617,-3.03675 -0.37652,-1.55111 2.77239,-1.99633c0.17512,-0.09944 0.30375,-0.20621 0.46188,-0.3285l-0.1974,-0.21939l0.03979,-0.18497c1.05239,0.6753 2.41569,-0.12639 4.01944,0.92853c2.07551,1.35764 3.93979,3.0552 5.88779,4.58229c0.7452,0.58421 1.90229,1.08084 2.71748,1.61848c1.91953,1.26581 3.78003,2.61496 5.87183,3.58654c0.27832,0.12932 0.48208,0.74443 0.75908,0.91007c1.16221,0.55946 2.31035,1.12463 3.42275,1.77767c2.41743,1.41886 4.89111,2.66753 7.29536,4.10719c0.74766,0.44757 1.87368,0.8263 2.66338,1.2954c0.68086,0.40451 1.34722,0.94434 1.99468,1.34636c0.55063,0.34183 1.44404,0.14411 2.11963,0.59739c-0.06079,0.17062 -0.07295,0.28354 -0.04937,0.46324c0.85459,0.68263 4.04985,1.73491 5.19111,2.17383l7.98589,3.1151c4.66172,1.87214 8.66982,4.04641 13.7209,4.76374c0.65845,0.18497 1.29609,0.47569 1.94604,0.67838c8.06719,2.51712 16.20498,4.79304 24.39126,6.8727c0.40254,0.10223 1.42998,0.30389 1.82007,0.24326l-0.35493,-0.37741l0.08628,-0.07015c0.86162,0.37873 0.73447,0.74077 1.26621,0.91637c3.10825,1.0265 6.65347,1.55491 9.8751,2.13575c0.90996,0.15978 2.59937,-0.18146 3.42964,0.0432c1.48975,0.40334 3.35801,0.54335 4.79326,0.96133c2.11304,0.61555 2.52876,0.6674 4.67183,0.68468c0.40254,0.44347 0.31655,0.40246 1.02627,0.44332c0.33706,0.01933 1.34517,0.01362 1.63359,-0.03852c2.24648,-0.33011 5.42007,0.08363 7.72705,0.18644c1.29697,0.0577 2.22114,-0.04936 3.60557,0.08553l0.37559,0.30609c1.61221,0.78954 4.6894,-0.14104 6.42744,-0.28119c0.7374,-0.05946 1.5085,0.45679 2.30479,0.53398c0.88477,0.08568 1.66523,-0.42135 2.43179,-0.4811c0.46143,-0.03603 1.75151,0.46851 2.37261,0.36394c0.33252,-0.05609 0.375,-0.3594 0.67969,-0.75424c0.40137,-0.02094 1.25244,0.5391 1.65088,0.76625z" fill="#000000"/><path d="M291.25488,34.83244l0.56982,0.10589c1.31543,-1.18716 2.9751,0.53324 4.16602,-0.24502c-0.01904,0.14294 -0.10107,0.76069 -0.1875,0.84153c-1.06787,0.99531 -4.2334,1.10383 -4.54834,-0.7024z" fill-opacity="0.9098" fill="#000000"/><path d="M244.74023,51.24742c-0.2124,-0.00718 -0.26807,-0.07791 -0.4292,-0.21426c0.26367,-1.03617 1.84277,-1.43995 2.71582,-1.70796c-0.18164,-0.59241 -0.24463,-0.18966 -0.06592,-0.85061c0.42188,0.05741 0.41016,0.27036 0.77197,0.71807c-0.48779,0.55931 -2.26465,1.52372 -2.99268,2.05476z" fill-opacity="0.88235" fill="#000000"/><path d="M133.36025,70.91897c0.32358,-0.58934 0.66226,-0.83641 1.36699,-0.74062l0.29033,0.23506c-0.10063,0.68336 -0.6627,0.66915 -1.28174,0.81165z" fill-opacity="0.01961" fill="#000000"/><path d="M3.5388,27.62114c-0.42542,-0.02431 -0.78951,0.00366 -1.10546,-0.28178l0.01449,-0.26142c0.4235,-0.31986 0.90744,-0.44288 1.39523,-0.18966l-0.03979,0.18497l0.1974,0.21939c-0.15813,0.12229 -0.28676,0.22906 -0.46188,0.3285z" fill-opacity="0.08627" fill="#000000"/><path d="M119.36777,70.24221l0.55342,-0.19449c0.71646,0.37156 1.45298,0.24604 2.24839,0.14777l-0.14194,0.45152c-0.28843,0.05214 -1.29653,0.05785 -1.63359,0.03852c-0.70972,-0.04086 -0.62373,0.00015 -1.02627,-0.44332z" fill-opacity="0.06275" fill="#000000"/><path d="M119.92119,70.04771c1.00884,-0.39074 1.36787,-0.66871 2.24839,0.14777c-0.79541,0.09827 -1.53193,0.22378 -2.24839,-0.14777z" fill-opacity="0.90196" fill="#000000"/></g></svg></svg>