<svg class="border shadow-md" viewBox="0 0 1351.68 760.32" xmlns="http://www.w3.org/2000/svg" preserveAspectRatio="none" style="width: 1351.68px; height: 760.32px;"><rect class="bg" id="wave2" x="0" y="0" width="1351.68" height="760.32" fill="#baa2fa52" data-darkreader-inline-fill="" style="--darkreader-inline-fill: #e8e6e3;"/><g transform="rotate(145 675.84 380.16)"><path d="M -450.56 570.32 S -235.28 423.32&#10;            0.00 570.32 215.28 415.32&#10;            450.56 570.32 525.12 426.32&#10;            901.12 570.32 1116.40 555.32&#10;            1351.68 570.32 1566.96 565.32&#10;            1802.24 570.32 h 110 V 1360.3200000000002 H -450.56 Z" fill="#FEFEFE" id="wave1"/><path id="wave3" d="M -450.56 215.00 S -235.28 117.50&#10;            0.00 215.00 213.56 99.00&#10;            450.56 215.00 665.84 117.50&#10;            901.12 215.00 1102.68 38.00&#10;            1351.68 215.00 1566.96 117.50&#10;            1802.24 215.00 h 110 V -600 H -450.56 Z" fill="#6310bc33"/></g></svg>